<svg width="169" height="31" viewBox="0 0 169 31" fill="none" xmlns="http://www.w3.org/2000/svg">
<path fill-rule="evenodd" clip-rule="evenodd" d="M61.606 20.126C64.954 20.126 66.628 18.884 66.628 16.4C66.628 15.776 66.442 15.224 66.07 14.744C65.698 14.264 65.05 13.76 64.126 13.232C63.838 13.064 63.484 12.869 63.064 12.647C62.644 12.425 62.314 12.248 62.074 12.116C61.834 11.984 61.588 11.831 61.336 11.657C61.084 11.483 60.901 11.315 60.787 11.153C60.673 10.991 60.616 10.82 60.616 10.64C60.616 10.064 60.97 9.776 61.678 9.776C62.122 9.776 62.608 9.887 63.136 10.109C63.664 10.331 64.144 10.553 64.576 10.775C65.008 10.997 65.332 11.108 65.548 11.108C65.68 11.108 65.803 11.081 65.917 11.027C66.031 10.973 66.127 10.883 66.205 10.757C66.283 10.631 66.322 10.478 66.322 10.298C66.322 9.638 65.818 9.014 64.81 8.426C63.802 7.838 62.584 7.544 61.156 7.544C59.5 7.544 58.222 7.862 57.322 8.498C56.422 9.134 55.972 9.956 55.972 10.964C55.972 11.276 56.044 11.615 56.188 11.981C56.332 12.347 56.563 12.716 56.881 13.088C57.199 13.46 57.58 13.772 58.024 14.024C58.36 14.216 58.708 14.408 59.068 14.6C59.428 14.792 59.719 14.948 59.941 15.068L60.607 15.428C60.829 15.548 61.003 15.647 61.129 15.725C61.255 15.803 61.369 15.887 61.471 15.977C61.573 16.067 61.645 16.157 61.687 16.247C61.729 16.337 61.75 16.436 61.75 16.544C61.75 16.916 61.48 17.102 60.94 17.102C60.352 17.102 59.578 16.943 58.618 16.625C57.658 16.307 57.052 16.148 56.8 16.148C56.464 16.148 56.209 16.241 56.035 16.427C55.861 16.613 55.774 16.838 55.774 17.102C55.774 17.342 55.864 17.6 56.044 17.876C56.224 18.152 56.491 18.422 56.845 18.686C57.199 18.95 57.607 19.19 58.069 19.406C58.531 19.622 59.071 19.796 59.689 19.928C60.307 20.06 60.946 20.126 61.606 20.126ZM80.884 20C81.184 20 81.433 19.979 81.631 19.937C81.829 19.895 82.009 19.811 82.171 19.685C82.333 19.559 82.459 19.4 82.549 19.208C82.639 19.016 82.714 18.752 82.774 18.416C82.834 18.08 82.873 17.702 82.891 17.282C82.909 16.862 82.918 16.334 82.918 15.698C82.918 14.174 82.732 13.088 82.36 12.44C81.988 11.792 81.376 11.468 80.524 11.468C79.18 11.468 78.046 11.804 77.122 12.476L76.942 12.62C76.546 11.852 75.904 11.468 75.016 11.468C74.428 11.468 73.915 11.534 73.477 11.666C73.039 11.798 72.592 12.032 72.136 12.368C71.872 11.732 71.248 11.414 70.264 11.414C69.712 11.414 69.271 11.6 68.941 11.972C68.611 12.344 68.446 12.836 68.446 13.448V17.876C68.446 18.632 68.575 19.175 68.833 19.505C69.091 19.835 69.574 20 70.282 20C71.038 20 71.566 19.859 71.866 19.577C72.166 19.295 72.316 18.794 72.316 18.074V15.572C72.316 15.176 72.385 14.855 72.523 14.609C72.661 14.363 72.838 14.24 73.054 14.24C73.594 14.24 73.864 14.576 73.864 15.248V18.506C73.864 18.83 73.918 19.1 74.026 19.316C74.134 19.532 74.317 19.7 74.575 19.82C74.833 19.94 75.172 20 75.592 20C75.868 20 76.096 19.979 76.276 19.937C76.456 19.895 76.618 19.811 76.762 19.685C76.906 19.559 77.02 19.4 77.104 19.208C77.188 19.016 77.26 18.752 77.32 18.416C77.38 18.08 77.419 17.702 77.437 17.282C77.455 16.862 77.464 16.334 77.464 15.698C77.464 15.278 77.524 14.93 77.644 14.654C77.764 14.378 77.944 14.24 78.184 14.24C78.724 14.24 78.994 14.576 78.994 15.248V18.506C78.994 18.83 79.054 19.1 79.174 19.316C79.294 19.532 79.495 19.7 79.777 19.82C80.059 19.94 80.428 20 80.884 20ZM87.985 9.974C87.655 10.178 87.166 10.28 86.518 10.28C85.954 10.28 85.486 10.172 85.114 9.956C84.742 9.74 84.556 9.392 84.556 8.912C84.556 8.516 84.727 8.189 85.069 7.931C85.411 7.673 85.894 7.544 86.518 7.544C87.826 7.544 88.48 8 88.48 8.912C88.48 9.416 88.315 9.77 87.985 9.974ZM86.428 20C87.184 20 87.712 19.859 88.012 19.577C88.312 19.295 88.462 18.794 88.462 18.074V13.394C88.462 12.638 88.282 12.119 87.922 11.837C87.562 11.555 87.058 11.414 86.41 11.414C85.858 11.414 85.417 11.6 85.087 11.972C84.757 12.344 84.592 12.836 84.592 13.448V17.876C84.592 18.632 84.721 19.175 84.979 19.505C85.237 19.835 85.72 20 86.428 20ZM93.574 19.37C93.25 19.79 92.752 20 92.08 20C91.408 20 90.916 19.811 90.604 19.433C90.292 19.055 90.136 18.386 90.136 17.426L90.1 9.83C90.1 9.518 90.133 9.242 90.199 9.002C90.265 8.762 90.355 8.558 90.469 8.39C90.583 8.222 90.724 8.084 90.892 7.976C91.06 7.868 91.243 7.79 91.441 7.742C91.639 7.694 91.852 7.67 92.08 7.67C92.74 7.67 93.235 7.802 93.565 8.066C93.895 8.33 94.06 8.864 94.06 9.668V17.282C94.06 18.254 93.898 18.95 93.574 19.37ZM100.666 20.108C101.314 20.108 101.92 20 102.484 19.784C103.048 19.568 103.501 19.307 103.843 19.001C104.185 18.695 104.452 18.389 104.644 18.083C104.836 17.777 104.932 17.516 104.932 17.3C104.932 17.12 104.875 16.97 104.761 16.85C104.647 16.73 104.488 16.67 104.284 16.67C104.164 16.67 103.969 16.736 103.699 16.868C103.429 17 103.18 17.096 102.952 17.156C102.412 17.288 101.884 17.354 101.368 17.354C100.888 17.354 100.492 17.243 100.18 17.021C99.868 16.799 99.652 16.496 99.532 16.112L102.07 16.094C102.37 16.094 102.652 16.067 102.916 16.013C103.18 15.959 103.408 15.881 103.6 15.779C103.792 15.677 103.963 15.563 104.113 15.437C104.263 15.311 104.383 15.173 104.473 15.023C104.563 14.873 104.629 14.72 104.671 14.564C104.713 14.408 104.734 14.246 104.734 14.078C104.734 13.214 104.407 12.533 103.753 12.035C103.099 11.537 102.07 11.288 100.666 11.288C99.178 11.288 97.963 11.699 97.021 12.521C96.079 13.343 95.608 14.462 95.608 15.878C95.608 17.186 96.085 18.218 97.039 18.974C97.993 19.73 99.202 20.108 100.666 20.108ZM99.676 13.871C99.556 14.201 99.478 14.564 99.442 14.96C100.27 14.948 100.72 14.942 100.792 14.942C100.972 14.942 101.104 14.834 101.188 14.618C101.248 14.462 101.278 14.246 101.278 13.97C101.278 13.214 101.05 12.836 100.594 12.836C100.426 12.836 100.261 12.926 100.099 13.106C99.937 13.286 99.796 13.541 99.676 13.871ZM112.204 20.126C115.552 20.126 117.226 18.884 117.226 16.4C117.226 15.776 117.04 15.224 116.668 14.744C116.296 14.264 115.648 13.76 114.724 13.232C114.436 13.064 114.082 12.869 113.662 12.647C113.242 12.425 112.912 12.248 112.672 12.116C112.432 11.984 112.186 11.831 111.934 11.657C111.682 11.483 111.499 11.315 111.385 11.153C111.271 10.991 111.214 10.82 111.214 10.64C111.214 10.064 111.568 9.776 112.276 9.776C112.72 9.776 113.206 9.887 113.734 10.109C114.262 10.331 114.742 10.553 115.174 10.775C115.606 10.997 115.93 11.108 116.146 11.108C116.278 11.108 116.401 11.081 116.515 11.027C116.629 10.973 116.725 10.883 116.803 10.757C116.881 10.631 116.92 10.478 116.92 10.298C116.92 9.638 116.416 9.014 115.408 8.426C114.4 7.838 113.182 7.544 111.754 7.544C110.098 7.544 108.82 7.862 107.92 8.498C107.02 9.134 106.57 9.956 106.57 10.964C106.57 11.276 106.642 11.615 106.786 11.981C106.93 12.347 107.161 12.716 107.479 13.088C107.797 13.46 108.178 13.772 108.622 14.024C108.958 14.216 109.306 14.408 109.666 14.6C110.026 14.792 110.317 14.948 110.539 15.068L111.205 15.428C111.427 15.548 111.601 15.647 111.727 15.725C111.853 15.803 111.967 15.887 112.069 15.977C112.171 16.067 112.243 16.157 112.285 16.247C112.327 16.337 112.348 16.436 112.348 16.544C112.348 16.916 112.078 17.102 111.538 17.102C110.95 17.102 110.176 16.943 109.216 16.625C108.256 16.307 107.65 16.148 107.398 16.148C107.062 16.148 106.807 16.241 106.633 16.427C106.459 16.613 106.372 16.838 106.372 17.102C106.372 17.342 106.462 17.6 106.642 17.876C106.822 18.152 107.089 18.422 107.443 18.686C107.797 18.95 108.205 19.19 108.667 19.406C109.129 19.622 109.669 19.796 110.287 19.928C110.905 20.06 111.544 20.126 112.204 20.126ZM125.416 19.91C124.948 20.054 124.456 20.126 123.94 20.126C122.452 20.126 121.228 19.727 120.268 18.929C119.308 18.131 118.828 17.036 118.828 15.644C118.828 14.756 119.047 13.979 119.485 13.313C119.923 12.647 120.526 12.143 121.294 11.801C122.062 11.459 122.944 11.288 123.94 11.288C124.888 11.288 125.671 11.399 126.289 11.621C126.907 11.843 127.348 12.14 127.612 12.512C127.876 12.884 128.008 13.328 128.008 13.844C128.008 14.072 127.963 14.306 127.873 14.546C127.783 14.786 127.645 15.026 127.459 15.266C127.273 15.506 127 15.701 126.64 15.851C126.28 16.001 125.86 16.076 125.38 16.076C125.164 16.076 124.987 16.064 124.849 16.04C124.711 16.016 124.567 15.965 124.417 15.887C124.267 15.809 124.156 15.68 124.084 15.5C124.012 15.32 123.976 15.092 123.976 14.816C123.976 14.576 124.021 14.285 124.111 13.943C124.201 13.601 124.246 13.376 124.246 13.268C124.246 12.992 124.09 12.854 123.778 12.854C123.55 12.854 123.346 12.98 123.166 13.232C122.986 13.484 122.848 13.799 122.752 14.177C122.656 14.555 122.608 14.948 122.608 15.356C122.608 15.956 122.791 16.442 123.157 16.814C123.523 17.186 124.018 17.372 124.642 17.372C125.254 17.372 125.782 17.3 126.226 17.156C126.406 17.108 126.625 17.018 126.883 16.886C127.141 16.754 127.324 16.688 127.432 16.688C127.6 16.688 127.738 16.718 127.846 16.778C127.954 16.838 128.029 16.91 128.071 16.994C128.113 17.078 128.134 17.168 128.134 17.264C128.134 17.432 128.077 17.636 127.963 17.876C127.849 18.116 127.672 18.368 127.432 18.632C127.192 18.896 126.913 19.139 126.595 19.361C126.277 19.583 125.884 19.766 125.416 19.91ZM137.242 20C137.494 20 137.71 19.982 137.89 19.946C138.07 19.91 138.235 19.853 138.385 19.775C138.535 19.697 138.658 19.586 138.754 19.442C138.85 19.298 138.934 19.124 139.006 18.92C139.078 18.716 139.132 18.455 139.168 18.137C139.204 17.819 139.231 17.468 139.249 17.084C139.267 16.7 139.276 16.244 139.276 15.716C139.276 14.684 139.192 13.85 139.024 13.214C138.856 12.578 138.598 12.113 138.25 11.819C137.902 11.525 137.44 11.378 136.864 11.378C135.592 11.378 134.512 11.648 133.624 12.188V9.578C133.624 8.774 133.462 8.24 133.138 7.976C132.814 7.712 132.334 7.58 131.698 7.58C131.098 7.58 130.618 7.754 130.258 8.102C129.898 8.45 129.718 8.996 129.718 9.74L129.754 17.408C129.754 18.368 129.91 19.037 130.222 19.415C130.534 19.793 131.026 19.982 131.698 19.982C132.346 19.982 132.829 19.775 133.147 19.361C133.465 18.947 133.624 18.248 133.624 17.264V15.284C133.624 15.152 133.633 15.032 133.651 14.924C133.669 14.816 133.699 14.723 133.741 14.645C133.783 14.567 133.831 14.495 133.885 14.429C133.939 14.363 133.999 14.312 134.065 14.276C134.131 14.24 134.203 14.21 134.281 14.186C134.359 14.162 134.446 14.15 134.542 14.15C135.07 14.15 135.334 14.492 135.334 15.176L135.352 18.506C135.352 19.01 135.499 19.385 135.793 19.631C136.087 19.877 136.57 20 137.242 20ZM149.365 18.956C148.423 19.736 147.238 20.126 145.81 20.126C144.874 20.126 144.031 19.958 143.281 19.622C142.531 19.286 141.931 18.782 141.481 18.11C141.031 17.438 140.806 16.652 140.806 15.752C140.806 14.384 141.274 13.298 142.21 12.494C143.146 11.69 144.346 11.288 145.81 11.288C147.274 11.288 148.468 11.69 149.392 12.494C150.316 13.298 150.778 14.384 150.778 15.752C150.778 17.108 150.307 18.176 149.365 18.956ZM145.81 18.038C145.498 18.038 145.258 17.807 145.09 17.345C144.922 16.883 144.838 16.346 144.838 15.734C144.838 15.338 144.874 14.966 144.946 14.618C145.018 14.27 145.132 13.976 145.288 13.736C145.444 13.496 145.624 13.376 145.828 13.376C146.128 13.376 146.356 13.613 146.512 14.087C146.668 14.561 146.746 15.11 146.746 15.734C146.746 16.358 146.668 16.898 146.512 17.354C146.356 17.81 146.122 18.038 145.81 18.038ZM160.723 18.956C159.781 19.736 158.596 20.126 157.168 20.126C156.232 20.126 155.389 19.958 154.639 19.622C153.889 19.286 153.289 18.782 152.839 18.11C152.389 17.438 152.164 16.652 152.164 15.752C152.164 14.384 152.632 13.298 153.568 12.494C154.504 11.69 155.704 11.288 157.168 11.288C158.632 11.288 159.826 11.69 160.75 12.494C161.674 13.298 162.136 14.384 162.136 15.752C162.136 17.108 161.665 18.176 160.723 18.956ZM157.168 18.038C156.856 18.038 156.616 17.807 156.448 17.345C156.28 16.883 156.196 16.346 156.196 15.734C156.196 15.338 156.232 14.966 156.304 14.618C156.376 14.27 156.49 13.976 156.646 13.736C156.802 13.496 156.982 13.376 157.186 13.376C157.486 13.376 157.714 13.613 157.87 14.087C158.026 14.561 158.104 15.11 158.104 15.734C158.104 16.358 158.026 16.898 157.87 17.354C157.714 17.81 157.48 18.038 157.168 18.038ZM167.122 19.37C166.798 19.79 166.3 20 165.628 20C164.956 20 164.464 19.811 164.152 19.433C163.84 19.055 163.684 18.386 163.684 17.426L163.648 9.83C163.648 9.518 163.681 9.242 163.747 9.002C163.813 8.762 163.903 8.558 164.017 8.39C164.131 8.222 164.272 8.084 164.44 7.976C164.608 7.868 164.791 7.79 164.989 7.742C165.187 7.694 165.4 7.67 165.628 7.67C166.288 7.67 166.783 7.802 167.113 8.066C167.443 8.33 167.608 8.864 167.608 9.668V17.282C167.608 18.254 167.446 18.95 167.122 19.37Z" fill="white"/>
<path d="M64.126 13.232L63.874 13.6639L63.8779 13.6661L64.126 13.232ZM61.336 11.657L61.0519 12.0685L61.336 11.657ZM57.322 8.498L57.6105 8.90634V8.90634L57.322 8.498ZM56.188 11.981L56.6533 11.7979L56.188 11.981ZM58.024 14.024L58.2721 13.5899L58.2708 13.5892L58.024 14.024ZM58.069 19.406L58.2808 18.9531L58.069 19.406ZM82.171 19.685L81.864 19.2903L81.864 19.2903L82.171 19.685ZM82.549 19.208L82.0963 18.9958H82.0963L82.549 19.208ZM82.891 17.282L83.3905 17.3034V17.3034L82.891 17.282ZM82.36 12.44L81.9264 12.6889V12.6889L82.36 12.44ZM77.122 12.476L76.8279 12.0716L76.8186 12.0784L76.8096 12.0856L77.122 12.476ZM76.942 12.62L76.4976 12.8491L76.7775 13.3919L77.2543 13.0104L76.942 12.62ZM73.477 11.666L73.3327 11.1873L73.477 11.666ZM72.136 12.368L71.6742 12.5597L71.9188 13.1491L72.4326 12.7705L72.136 12.368ZM68.941 11.972L69.315 12.3038L69.315 12.3038L68.941 11.972ZM68.833 19.505L69.2269 19.197V19.197L68.833 19.505ZM71.866 19.577L71.5235 19.2127L71.5235 19.2127L71.866 19.577ZM72.523 14.609L72.9591 14.8536L72.9591 14.8536L72.523 14.609ZM74.026 19.316L73.5788 19.5396L73.5788 19.5396L74.026 19.316ZM74.575 19.82L74.7859 19.3666V19.3666L74.575 19.82ZM76.276 19.937L76.1624 19.4501L76.276 19.937ZM76.762 19.685L76.4327 19.3087L76.4327 19.3087L76.762 19.685ZM77.104 19.208L76.6459 19.0076V19.0076L77.104 19.208ZM77.644 14.654L77.1855 14.4546L77.1854 14.4546L77.644 14.654ZM79.174 19.316L79.6111 19.0732L79.174 19.316ZM87.985 9.974L87.7221 9.5487V9.54871L87.985 9.974ZM85.069 7.931L85.3701 8.33016V8.33016L85.069 7.931ZM88.012 19.577L87.6695 19.2127L87.6695 19.2127L88.012 19.577ZM87.922 11.837L88.2303 11.4434L88.2303 11.4434L87.922 11.837ZM85.087 11.972L85.461 12.3038V12.3038L85.087 11.972ZM84.979 19.505L84.5851 19.813V19.813L84.979 19.505ZM93.574 19.37L93.1781 19.0646L93.1781 19.0646L93.574 19.37ZM90.604 19.433L90.2184 19.7513V19.7513L90.604 19.433ZM90.136 17.426H90.636L90.636 17.4236L90.136 17.426ZM90.1 9.83H89.6L89.6 9.83237L90.1 9.83ZM90.199 9.002L89.7169 8.86942L89.7169 8.86943L90.199 9.002ZM90.469 8.39L90.0553 8.10925L90.0552 8.10925L90.469 8.39ZM90.892 7.976L90.6216 7.55541V7.55541L90.892 7.976ZM91.441 7.742L91.3232 7.25608L91.3232 7.25608L91.441 7.742ZM93.565 8.066L93.8773 7.67557V7.67557L93.565 8.066ZM102.484 19.784L102.305 19.3171L102.484 19.784ZM103.843 19.001L104.176 19.3736V19.3736L103.843 19.001ZM104.644 18.083L104.22 17.8173L104.22 17.8173L104.644 18.083ZM103.699 16.868L103.479 16.4188L103.699 16.868ZM102.952 17.156L103.071 17.6418L103.079 17.6395L102.952 17.156ZM100.18 17.021L100.47 16.6136L100.47 16.6136L100.18 17.021ZM99.532 16.112L99.5284 15.612L98.8534 15.6168L99.0547 16.2611L99.532 16.112ZM102.07 16.094V15.594L102.066 15.594L102.07 16.094ZM103.6 15.779L103.835 16.2206L103.835 16.2206L103.6 15.779ZM104.113 15.437L104.435 15.8199L104.435 15.8199L104.113 15.437ZM104.473 15.023L104.044 14.7658L104.044 14.7658L104.473 15.023ZM103.753 12.035L103.45 12.4328H103.45L103.753 12.035ZM97.021 12.521L96.6922 12.1443V12.1443L97.021 12.521ZM97.039 18.974L96.7284 19.3659H96.7284L97.039 18.974ZM99.442 14.96L98.944 14.9147L98.8937 15.468L99.4492 15.4599L99.442 14.96ZM99.676 13.871L100.146 14.0419L100.146 14.0419L99.676 13.871ZM101.188 14.618L101.654 14.7992L101.655 14.7975L101.188 14.618ZM100.099 13.106L100.471 13.4405L100.471 13.4405L100.099 13.106ZM116.668 14.744L116.273 15.0503L116.273 15.0503L116.668 14.744ZM114.724 13.232L114.472 13.6639L114.476 13.6661L114.724 13.232ZM113.662 12.647L113.896 12.205V12.205L113.662 12.647ZM112.672 12.116L112.431 12.5541V12.5541L112.672 12.116ZM111.934 11.657L111.65 12.0685L111.934 11.657ZM111.385 11.153L111.794 10.8653L111.794 10.8653L111.385 11.153ZM115.174 10.775L115.403 10.3303V10.3303L115.174 10.775ZM116.515 11.027L116.301 10.5751L116.301 10.5751L116.515 11.027ZM107.92 8.498L108.209 8.90634V8.90634L107.92 8.498ZM106.786 11.981L107.251 11.7979V11.7979L106.786 11.981ZM107.479 13.088L107.099 13.4129V13.4129L107.479 13.088ZM108.622 14.024L108.87 13.5899L108.869 13.5892L108.622 14.024ZM112.069 15.977L111.738 16.3519L111.738 16.3519L112.069 15.977ZM112.285 16.247L112.738 16.0356L112.738 16.0355L112.285 16.247ZM109.216 16.625L109.373 16.1504V16.1504L109.216 16.625ZM108.667 19.406L108.455 19.8589V19.8589L108.667 19.406ZM125.416 19.91L125.269 19.4321V19.4321L125.416 19.91ZM120.268 18.929L120.588 18.5445L120.268 18.929ZM121.294 11.801L121.497 12.2578V12.2578L121.294 11.801ZM126.289 11.621L126.12 12.0916V12.0916L126.289 11.621ZM127.612 12.512L127.204 12.8014V12.8014L127.612 12.512ZM127.873 14.546L127.405 14.3704L127.405 14.3704L127.873 14.546ZM127.459 15.266L127.064 14.9597L127.064 14.9597L127.459 15.266ZM126.64 15.851L126.448 15.3895L126.448 15.3895L126.64 15.851ZM124.849 16.04L124.763 16.5326L124.763 16.5326L124.849 16.04ZM124.417 15.887L124.186 16.3306L124.186 16.3306L124.417 15.887ZM124.084 15.5L123.62 15.6857L123.62 15.6857L124.084 15.5ZM124.111 13.943L123.627 13.8158V13.8158L124.111 13.943ZM123.166 13.232L122.759 12.9414L123.166 13.232ZM122.752 14.177L123.237 14.3001L123.237 14.3001L122.752 14.177ZM123.157 16.814L123.513 16.4633V16.4633L123.157 16.814ZM126.226 17.156L126.097 16.6729L126.084 16.6763L126.072 16.6804L126.226 17.156ZM127.846 16.778L128.089 16.3409L128.089 16.3409L127.846 16.778ZM128.071 16.994L127.624 17.2176L127.624 17.2176L128.071 16.994ZM127.432 18.632L127.802 18.9683L127.802 18.9683L127.432 18.632ZM126.595 19.361L126.309 18.951V18.951L126.595 19.361ZM137.89 19.946L137.988 20.4363H137.988L137.89 19.946ZM139.006 18.92L139.477 19.0864V19.0864L139.006 18.92ZM139.168 18.137L138.671 18.0808V18.0808L139.168 18.137ZM139.249 17.084L138.75 17.0606V17.0606L139.249 17.084ZM139.024 13.214L139.507 13.0863L139.024 13.214ZM138.25 11.819L138.573 11.4371V11.4371L138.25 11.819ZM133.624 12.188H133.124V13.0772L133.884 12.6152L133.624 12.188ZM133.138 7.976L132.822 8.36362L132.822 8.36362L133.138 7.976ZM130.258 8.102L130.605 8.4615L130.258 8.102ZM129.718 9.74H129.218L129.218 9.74235L129.718 9.74ZM129.754 17.408H130.254L130.254 17.4057L129.754 17.408ZM130.222 19.415L129.836 19.7333V19.7333L130.222 19.415ZM133.147 19.361L133.544 19.6656L133.147 19.361ZM133.651 14.924L133.158 14.8418V14.8418L133.651 14.924ZM133.741 14.645L133.301 14.408V14.408L133.741 14.645ZM133.885 14.429L133.498 14.1124V14.1124L133.885 14.429ZM134.065 14.276L133.826 13.8371L133.826 13.8371L134.065 14.276ZM134.281 14.186L134.428 14.6639L134.428 14.6639L134.281 14.186ZM135.334 15.176H134.834L134.834 15.1787L135.334 15.176ZM135.352 18.506H135.852L135.852 18.5033L135.352 18.506ZM135.793 19.631L135.472 20.0145L135.472 20.0145L135.793 19.631ZM149.365 18.956L149.684 19.3411V19.3411L149.365 18.956ZM143.281 19.622L143.485 19.1657L143.281 19.622ZM141.481 18.11L141.896 17.8318V17.8318L141.481 18.11ZM149.392 12.494L149.064 12.8712V12.8712L149.392 12.494ZM145.288 13.736L144.869 13.4635V13.4635L145.288 13.736ZM146.512 14.087L146.987 13.9307V13.9307L146.512 14.087ZM146.512 17.354L146.985 17.5159V17.5158L146.512 17.354ZM160.723 18.956L161.042 19.3411V19.3411L160.723 18.956ZM154.639 19.622L154.843 19.1657L154.639 19.622ZM152.839 18.11L153.254 17.8318V17.8318L152.839 18.11ZM160.75 12.494L160.422 12.8712V12.8712L160.75 12.494ZM156.646 13.736L156.227 13.4635V13.4635L156.646 13.736ZM157.87 14.087L158.345 13.9307V13.9307L157.87 14.087ZM157.87 17.354L158.343 17.5159V17.5158L157.87 17.354ZM167.122 19.37L167.518 19.6754V19.6754L167.122 19.37ZM164.152 19.433L163.766 19.7513V19.7513L164.152 19.433ZM163.684 17.426H164.184L164.184 17.4236L163.684 17.426ZM163.648 9.83H163.148L163.148 9.83237L163.648 9.83ZM163.747 9.002L164.229 9.13458V9.13458L163.747 9.002ZM164.017 8.39L164.431 8.67076L164.431 8.67075L164.017 8.39ZM164.44 7.976L164.17 7.55541V7.55541L164.44 7.976ZM164.989 7.742L165.107 8.22793V8.22793L164.989 7.742ZM167.113 8.066L166.801 8.45643V8.45644L167.113 8.066ZM66.128 16.4C66.128 17.518 65.7592 18.285 65.0746 18.793C64.3619 19.3217 63.2327 19.626 61.606 19.626V20.626C63.3272 20.626 64.709 20.3093 65.6704 19.5961C66.6597 18.862 67.128 17.766 67.128 16.4H66.128ZM65.6748 15.0503C65.9769 15.4401 66.128 15.8836 66.128 16.4H67.128C67.128 15.6684 66.9071 15.0079 66.4652 14.4377L65.6748 15.0503ZM63.8779 13.6661C64.7813 14.1824 65.3625 14.6473 65.6748 15.0503L66.4652 14.4377C66.0335 13.8807 65.3186 13.3376 64.3741 12.7979L63.8779 13.6661ZM62.8303 13.0891C63.2465 13.309 63.594 13.5005 63.8741 13.6639L64.3779 12.8001C64.082 12.6275 63.7215 12.429 63.2976 12.205L62.8303 13.0891ZM61.833 12.5541C62.0766 12.6881 62.4094 12.8665 62.8303 13.0891L63.2976 12.205C62.8786 11.9835 62.5514 11.8079 62.3149 11.6779L61.833 12.5541ZM61.0519 12.0685C61.3162 12.251 61.5766 12.4131 61.833 12.5541L62.3149 11.6779C62.0914 11.5549 61.8598 11.411 61.6201 11.2456L61.0519 12.0685ZM60.3781 11.4407C60.5394 11.6699 60.7749 11.8772 61.0519 12.0685L61.6201 11.2456C61.3931 11.0888 61.2626 10.9601 61.1959 10.8653L60.3781 11.4407ZM60.116 10.64C60.116 10.9334 60.211 11.2034 60.3781 11.4407L61.1959 10.8653C61.1349 10.7786 61.116 10.7067 61.116 10.64H60.116ZM61.678 9.276C61.2691 9.276 60.8696 9.3571 60.5659 9.60415C60.2425 9.86725 60.116 10.2445 60.116 10.64H61.116C61.116 10.4595 61.1664 10.4048 61.197 10.3799C61.2474 10.3389 61.3789 10.276 61.678 10.276V9.276ZM63.3298 9.64809C62.7574 9.40745 62.2048 9.276 61.678 9.276V10.276C62.0392 10.276 62.4585 10.3666 62.9422 10.5699L63.3298 9.64809ZM64.8045 10.3303C64.3594 10.1015 63.8675 9.87419 63.3298 9.64809L62.9422 10.5699C63.4604 10.7878 63.9286 11.0045 64.3475 11.2197L64.8045 10.3303ZM65.548 10.608C65.4628 10.608 65.2331 10.5505 64.8045 10.3303L64.3475 11.2197C64.7828 11.4435 65.2012 11.608 65.548 11.608V10.608ZM65.7029 10.5751C65.659 10.596 65.6095 10.608 65.548 10.608V11.608C65.7505 11.608 65.947 11.566 66.131 11.4789L65.7029 10.5751ZM65.7799 10.4938C65.7435 10.5525 65.7156 10.5692 65.7029 10.5751L66.131 11.4789C66.3464 11.3769 66.5104 11.2135 66.6301 11.0202L65.7799 10.4938ZM65.822 10.298C65.822 10.4051 65.7993 10.4623 65.7799 10.4938L66.6301 11.0202C66.7666 10.7997 66.822 10.551 66.822 10.298H65.822ZM64.5581 8.85789C65.5314 9.42567 65.822 9.92016 65.822 10.298H66.822C66.822 9.35585 66.1046 8.60234 65.0619 7.99411L64.5581 8.85789ZM61.156 8.044C62.5152 8.044 63.6419 8.32348 64.5581 8.85789L65.0619 7.99411C63.9621 7.35252 62.6528 7.044 61.156 7.044V8.044ZM57.6105 8.90634C58.3934 8.3531 59.5543 8.044 61.156 8.044V7.044C59.4456 7.044 58.0506 7.3709 57.0334 8.08967L57.6105 8.90634ZM56.472 10.964C56.472 10.1353 56.8287 9.45885 57.6105 8.90634L57.0334 8.08967C56.0153 8.80916 55.472 9.7767 55.472 10.964H56.472ZM56.6533 11.7979C56.5265 11.4756 56.472 11.1994 56.472 10.964H55.472C55.472 11.3526 55.5615 11.7544 55.7227 12.1641L56.6533 11.7979ZM57.261 12.7631C56.9707 12.4234 56.7727 12.1014 56.6533 11.7979L55.7227 12.1641C55.8913 12.5926 56.1553 13.0086 56.5009 13.4129L57.261 12.7631ZM58.2708 13.5892C57.875 13.3645 57.5397 13.0891 57.261 12.7631L56.5009 13.4129C56.8582 13.8309 57.2849 14.1795 57.7772 14.4588L58.2708 13.5892ZM59.3033 14.1588C58.9473 13.969 58.6036 13.7793 58.2721 13.5899L57.7759 14.4581C58.1164 14.6527 58.4686 14.847 58.8327 15.0412L59.3033 14.1588ZM60.1787 14.6281C59.9556 14.5075 59.6637 14.351 59.3033 14.1588L58.8327 15.0412C59.1923 15.233 59.4824 15.3885 59.7032 15.5079L60.1787 14.6281ZM60.8447 14.9881L60.1787 14.6281L59.7032 15.5079L60.3692 15.8679L60.8447 14.9881ZM61.3922 15.2999C61.2541 15.2144 61.0703 15.1101 60.8447 14.9881L60.3692 15.8679C60.5877 15.9859 60.7519 16.0796 60.8658 16.1501L61.3922 15.2999ZM61.8018 15.6021C61.6769 15.4919 61.54 15.3914 61.3922 15.2999L60.8658 16.1501C60.97 16.2146 61.061 16.2821 61.1402 16.3519L61.8018 15.6021ZM62.1401 16.0356C62.0604 15.8647 61.9375 15.7218 61.8018 15.6021L61.1402 16.3519C61.2085 16.4122 61.2296 16.4493 61.2339 16.4584L62.1401 16.0356ZM62.25 16.544C62.25 16.3694 62.2156 16.1974 62.1401 16.0356L61.2339 16.4584C61.2424 16.4766 61.25 16.5026 61.25 16.544H62.25ZM60.94 17.602C61.2519 17.602 61.5744 17.5511 61.8311 17.3743C62.1215 17.1742 62.25 16.8688 62.25 16.544H61.25C61.25 16.5765 61.2442 16.5808 61.2493 16.5703C61.2555 16.5576 61.2643 16.5504 61.2638 16.5507C61.2601 16.5533 61.238 16.5671 61.1825 16.5798C61.1269 16.5926 61.0479 16.602 60.94 16.602V17.602ZM58.4608 17.0996C59.4405 17.4242 60.2736 17.602 60.94 17.602V16.602C60.4304 16.602 59.7155 16.4618 58.7752 16.1504L58.4608 17.0996ZM56.8 16.648C56.8541 16.648 57.0117 16.6709 57.3166 16.7509C57.6052 16.8266 57.9855 16.9422 58.4608 17.0996L58.7752 16.1504C58.2905 15.9898 57.8878 15.8669 57.5704 15.7836C57.2693 15.7046 56.9979 15.648 56.8 15.648V16.648ZM56.4001 16.7686C56.452 16.7131 56.5561 16.648 56.8 16.648V15.648C56.3719 15.648 55.966 15.7689 55.6699 16.0854L56.4001 16.7686ZM56.274 17.102C56.274 16.9597 56.3162 16.8583 56.4001 16.7686L55.6699 16.0854C55.4058 16.3677 55.274 16.7163 55.274 17.102H56.274ZM56.4628 17.6029C56.3167 17.3788 56.274 17.2151 56.274 17.102H55.274C55.274 17.4689 55.4113 17.8212 55.6252 18.1491L56.4628 17.6029ZM57.1439 18.2852C56.822 18.0451 56.6018 17.816 56.4628 17.6029L55.6252 18.1491C55.8462 18.488 56.16 18.7989 56.5461 19.0868L57.1439 18.2852ZM58.2808 18.9531C57.8449 18.7493 57.4669 18.5261 57.1439 18.2852L56.5461 19.0868C56.9311 19.3739 57.3691 19.6307 57.8572 19.8589L58.2808 18.9531ZM59.7934 19.439C59.204 19.3131 58.7015 19.1498 58.2808 18.9531L57.8572 19.8589C58.3605 20.0943 58.9379 20.2789 59.5845 20.417L59.7934 19.439ZM61.606 19.626C60.9795 19.626 60.3756 19.5634 59.7934 19.439L59.5845 20.417C60.2384 20.5566 60.9124 20.626 61.606 20.626V19.626ZM81.5272 19.4479C81.3754 19.4801 81.1641 19.5 80.884 19.5V20.5C81.2039 20.5 81.4906 20.4779 81.7347 20.4261L81.5272 19.4479ZM81.864 19.2903C81.7609 19.3705 81.6502 19.4218 81.5272 19.4479L81.7347 20.4261C82.0078 20.3682 82.2571 20.2515 82.478 20.0797L81.864 19.2903ZM82.0963 18.9958C82.0386 19.1188 81.9616 19.2144 81.864 19.2903L82.478 20.0797C82.7044 19.9036 82.8794 19.6812 83.0017 19.4202L82.0963 18.9958ZM82.2818 18.3281C82.2254 18.6438 82.16 18.8598 82.0963 18.9958L83.0017 19.4202C83.118 19.1722 83.2026 18.8602 83.2662 18.5039L82.2818 18.3281ZM82.3914 17.2606C82.3742 17.6632 82.3371 18.0184 82.2818 18.3281L83.2662 18.5039C83.3309 18.1416 83.3718 17.7408 83.3905 17.3034L82.3914 17.2606ZM82.418 15.698C82.418 16.3301 82.409 16.8503 82.3914 17.2606L83.3905 17.3034C83.4089 16.8737 83.418 16.3379 83.418 15.698H82.418ZM81.9264 12.6889C82.229 13.2161 82.418 14.188 82.418 15.698H83.418C83.418 14.16 83.235 12.9599 82.7936 12.1911L81.9264 12.6889ZM80.524 11.968C81.2271 11.968 81.6576 12.2207 81.9264 12.6889L82.7936 12.1911C82.3184 11.3633 81.5249 10.968 80.524 10.968V11.968ZM77.4161 12.8804C78.2403 12.2809 79.2664 11.968 80.524 11.968V10.968C79.0935 10.968 77.8517 11.3271 76.8279 12.0716L77.4161 12.8804ZM77.2543 13.0104L77.4343 12.8664L76.8096 12.0856L76.6296 12.2296L77.2543 13.0104ZM75.016 11.968C75.3866 11.968 75.6768 12.0475 75.9068 12.1851C76.1361 12.3222 76.3356 12.5349 76.4976 12.8491L77.3864 12.3909C77.1524 11.9371 76.8329 11.5738 76.4201 11.3269C76.0082 11.0805 75.5333 10.968 75.016 10.968V11.968ZM73.6213 12.1447C74.0013 12.0302 74.4637 11.968 75.016 11.968V10.968C74.3923 10.968 73.8286 11.0378 73.3327 11.1873L73.6213 12.1447ZM72.4326 12.7705C72.8531 12.4607 73.2493 12.2568 73.6213 12.1447L73.3327 11.1873C72.8287 11.3392 72.3309 11.6033 71.8394 11.9655L72.4326 12.7705ZM70.264 11.914C71.148 11.914 71.5205 12.1894 71.6742 12.5597L72.5978 12.1763C72.2235 11.2746 71.348 10.914 70.264 10.914V11.914ZM69.315 12.3038C69.5391 12.0513 69.8374 11.914 70.264 11.914V10.914C69.5866 10.914 69.0029 11.1487 68.5669 11.6402L69.315 12.3038ZM68.946 13.448C68.946 12.9289 69.0838 12.5645 69.315 12.3038L68.5669 11.6402C68.1382 12.1235 67.946 12.7431 67.946 13.448H68.946ZM68.946 17.876V13.448H67.946V17.876H68.946ZM69.2269 19.197C69.0742 19.0018 68.946 18.5997 68.946 17.876H67.946C67.946 18.6643 68.0757 19.3482 68.4391 19.813L69.2269 19.197ZM70.282 19.5C69.624 19.5 69.3407 19.3426 69.2269 19.197L68.4391 19.813C68.8413 20.3274 69.5239 20.5 70.282 20.5V19.5ZM71.5235 19.2127C71.368 19.3589 71.0061 19.5 70.282 19.5V20.5C71.0698 20.5 71.764 20.3591 72.2084 19.9413L71.5235 19.2127ZM71.816 18.074C71.816 18.7525 71.6695 19.0755 71.5235 19.2127L72.2084 19.9413C72.6625 19.5145 72.816 18.8355 72.816 18.074H71.816ZM71.816 15.572V18.074H72.816V15.572H71.816ZM72.0869 14.3644C71.8935 14.7092 71.816 15.1231 71.816 15.572H72.816C72.816 15.2289 72.8765 15.0008 72.9591 14.8536L72.0869 14.3644ZM73.054 13.74C72.6013 13.74 72.2822 14.0163 72.0869 14.3644L72.9591 14.8536C73.002 14.7771 73.0343 14.7499 73.0446 14.7428C73.0491 14.7397 73.0502 14.7398 73.0486 14.7402C73.0471 14.7407 73.0481 14.74 73.054 14.74V13.74ZM74.364 15.248C74.364 14.8582 74.2878 14.4732 74.0512 14.1788C73.7979 13.8635 73.4336 13.74 73.054 13.74V14.74C73.2144 14.74 73.2551 14.7845 73.2717 14.8052C73.3051 14.8468 73.364 14.9658 73.364 15.248H74.364ZM74.364 18.506V15.248H73.364V18.506H74.364ZM74.4732 19.0924C74.4097 18.9654 74.364 18.7777 74.364 18.506H73.364C73.364 18.8823 73.4263 19.2346 73.5788 19.5396L74.4732 19.0924ZM74.7859 19.3666C74.6113 19.2855 74.522 19.19 74.4732 19.0924L73.5788 19.5396C73.746 19.874 74.0227 20.1145 74.3641 20.2734L74.7859 19.3666ZM75.592 19.5C75.213 19.5 74.954 19.4449 74.7859 19.3666L74.3641 20.2734C74.7119 20.4351 75.1309 20.5 75.592 20.5V19.5ZM76.1624 19.4501C76.033 19.4803 75.8465 19.5 75.592 19.5V20.5C75.8894 20.5 76.1589 20.4777 76.3896 20.4239L76.1624 19.4501ZM76.4327 19.3087C76.3482 19.3827 76.2596 19.4274 76.1624 19.4501L76.3896 20.4239C76.6523 20.3626 76.8878 20.2393 77.0912 20.0613L76.4327 19.3087ZM76.6459 19.0076C76.5885 19.1387 76.5163 19.2356 76.4327 19.3087L77.0912 20.0613C77.2957 19.8824 77.4514 19.6613 77.5621 19.4084L76.6459 19.0076ZM76.8278 18.3281C76.7709 18.6463 76.7074 18.867 76.6459 19.0076L77.5621 19.4084C77.6685 19.1651 77.749 18.8577 77.8122 18.5039L76.8278 18.3281ZM76.9374 17.2606C76.9202 17.6632 76.8831 18.0184 76.8278 18.3281L77.8122 18.5039C77.8769 18.1416 77.9178 17.7408 77.9365 17.3034L76.9374 17.2606ZM76.964 15.698C76.964 16.3301 76.955 16.8503 76.9374 17.2606L77.9365 17.3034C77.9549 16.8737 77.964 16.3379 77.964 15.698H76.964ZM77.1854 14.4546C77.0296 14.8132 76.964 15.2347 76.964 15.698H77.964C77.964 15.3213 78.0184 15.0468 78.1025 14.8534L77.1854 14.4546ZM78.184 13.74C77.9608 13.74 77.7473 13.8067 77.5648 13.9467C77.3889 14.0815 77.2686 14.2634 77.1855 14.4546L78.1025 14.8534C78.1394 14.7687 78.169 14.7435 78.1732 14.7403C78.1748 14.7391 78.1736 14.7401 78.1713 14.7409C78.1693 14.7416 78.1725 14.74 78.184 14.74V13.74ZM79.494 15.248C79.494 14.8582 79.4178 14.4732 79.1812 14.1788C78.9279 13.8635 78.5636 13.74 78.184 13.74V14.74C78.3444 14.74 78.3851 14.7845 78.4017 14.8052C78.4351 14.8468 78.494 14.9658 78.494 15.248H79.494ZM79.494 18.506V15.248H78.494V18.506H79.494ZM79.6111 19.0732C79.5432 18.951 79.494 18.7707 79.494 18.506H78.494C78.494 18.8893 78.5648 19.249 78.7369 19.5588L79.6111 19.0732ZM79.9728 19.3599C79.768 19.2728 79.6651 19.1705 79.6111 19.0732L78.7369 19.5588C78.9229 19.8935 79.222 20.1272 79.5812 20.2801L79.9728 19.3599ZM80.884 19.5C80.4654 19.5 80.1703 19.444 79.9728 19.3599L79.5812 20.2801C79.9477 20.436 80.3906 20.5 80.884 20.5V19.5ZM86.518 10.78C87.2034 10.78 87.8022 10.6748 88.2479 10.3993L87.7221 9.54871C87.5078 9.68119 87.1286 9.78 86.518 9.78V10.78ZM84.8629 10.3884C85.3314 10.6604 85.8925 10.78 86.518 10.78V9.78C86.0155 9.78 85.6406 9.68361 85.3651 9.52361L84.8629 10.3884ZM84.056 8.912C84.056 9.54529 84.3164 10.0711 84.8629 10.3884L85.3651 9.52361C85.1675 9.40892 85.056 9.23871 85.056 8.912H84.056ZM84.7679 7.53184C84.3125 7.87537 84.056 8.34482 84.056 8.912H85.056C85.056 8.68718 85.1415 8.50263 85.3701 8.33016L84.7679 7.53184ZM86.518 7.044C85.8331 7.044 85.2282 7.18454 84.7679 7.53184L85.3701 8.33016C85.5937 8.16146 85.9549 8.044 86.518 8.044V7.044ZM88.98 8.912C88.98 8.31972 88.7574 7.81191 88.2755 7.47586C87.8263 7.16267 87.2147 7.044 86.518 7.044V8.044C87.1293 8.044 87.4987 8.15334 87.7035 8.29615C87.8755 8.4161 87.98 8.59228 87.98 8.912H88.98ZM88.2479 10.3993C88.7692 10.077 88.98 9.53048 88.98 8.912H87.98C87.98 9.30153 87.8608 9.46296 87.7221 9.5487L88.2479 10.3993ZM87.6695 19.2127C87.514 19.3589 87.1521 19.5 86.428 19.5V20.5C87.2158 20.5 87.91 20.3591 88.3544 19.9413L87.6695 19.2127ZM87.962 18.074C87.962 18.7525 87.8155 19.0755 87.6695 19.2127L88.3544 19.9413C88.8085 19.5145 88.962 18.8355 88.962 18.074H87.962ZM87.962 13.394V18.074H88.962V13.394H87.962ZM87.6137 12.2306C87.7917 12.3701 87.962 12.6926 87.962 13.394H88.962C88.962 12.5834 88.7723 11.8679 88.2303 11.4434L87.6137 12.2306ZM86.41 11.914C86.9917 11.914 87.3718 12.0412 87.6137 12.2306L88.2303 11.4434C87.7522 11.0688 87.1242 10.914 86.41 10.914V11.914ZM85.461 12.3038C85.6851 12.0513 85.9834 11.914 86.41 11.914V10.914C85.7326 10.914 85.1489 11.1487 84.713 11.6402L85.461 12.3038ZM85.092 13.448C85.092 12.9289 85.2298 12.5645 85.461 12.3038L84.713 11.6402C84.2842 12.1235 84.092 12.7431 84.092 13.448H85.092ZM85.092 17.876V13.448H84.092V17.876H85.092ZM85.3729 19.197C85.2202 19.0018 85.092 18.5997 85.092 17.876H84.092C84.092 18.6643 84.2217 19.3482 84.5851 19.813L85.3729 19.197ZM86.428 19.5C85.77 19.5 85.4867 19.3426 85.3729 19.197L84.5851 19.813C84.9873 20.3274 85.6699 20.5 86.428 20.5V19.5ZM92.08 20.5C92.8615 20.5 93.5265 20.2501 93.9699 19.6754L93.1781 19.0646C92.9734 19.3299 92.6424 19.5 92.08 19.5V20.5ZM90.2184 19.7513C90.6572 20.2829 91.3172 20.5 92.08 20.5V19.5C91.4988 19.5 91.1748 19.3391 90.9896 19.1147L90.2184 19.7513ZM89.636 17.426C89.636 18.407 89.7887 19.2307 90.2184 19.7513L90.9896 19.1147C90.7953 18.8793 90.636 18.365 90.636 17.426H89.636ZM89.6 9.83237L89.636 17.4284L90.636 17.4236L90.6 9.82763L89.6 9.83237ZM89.7169 8.86943C89.6365 9.16191 89.6 9.48399 89.6 9.83H90.6C90.6 9.55201 90.6295 9.32209 90.6811 9.13458L89.7169 8.86943ZM90.0552 8.10925C89.9045 8.33148 89.7942 8.58812 89.7169 8.86942L90.6811 9.13458C90.7357 8.93589 90.8055 8.78453 90.8827 8.67075L90.0552 8.10925ZM90.6216 7.55541C90.3959 7.7005 90.2065 7.8864 90.0553 8.10925L90.8827 8.67076C90.9595 8.55761 91.0521 8.46751 91.1624 8.39659L90.6216 7.55541ZM91.3232 7.25608C91.0722 7.31694 90.8374 7.41668 90.6216 7.55541L91.1624 8.39659C91.2826 8.31933 91.4138 8.26307 91.5588 8.22793L91.3232 7.25608ZM92.08 7.17C91.8169 7.17 91.564 7.1977 91.3232 7.25608L91.5588 8.22793C91.714 8.19031 91.887 8.17 92.08 8.17V7.17ZM93.8773 7.67557C93.421 7.3105 92.7934 7.17 92.08 7.17V8.17C92.6866 8.17 93.049 8.2935 93.2526 8.45644L93.8773 7.67557ZM94.56 9.668C94.56 8.83834 94.3981 8.09219 93.8773 7.67557L93.2526 8.45644C93.3919 8.56781 93.56 8.88967 93.56 9.668H94.56ZM94.56 17.282V9.668H93.56V17.282H94.56ZM93.9699 19.6754C94.398 19.1205 94.56 18.284 94.56 17.282H93.56C93.56 18.224 93.398 18.7795 93.1781 19.0646L93.9699 19.6754ZM102.305 19.3171C101.802 19.5097 101.257 19.608 100.666 19.608V20.608C101.371 20.608 102.038 20.4903 102.663 20.2509L102.305 19.3171ZM103.51 18.6284C103.225 18.8832 102.829 19.1163 102.305 19.3171L102.663 20.2509C103.267 20.0197 103.777 19.7308 104.176 19.3736L103.51 18.6284ZM104.22 17.8173C104.059 18.0746 103.826 18.3456 103.51 18.6284L104.176 19.3736C104.544 19.0444 104.845 18.7034 105.068 18.3487L104.22 17.8173ZM104.432 17.3C104.432 17.3782 104.392 17.5431 104.22 17.8173L105.068 18.3487C105.28 18.0109 105.432 17.6538 105.432 17.3H104.432ZM104.398 17.1944C104.416 17.2129 104.432 17.2359 104.432 17.3H105.432C105.432 17.0041 105.334 16.7271 105.123 16.5056L104.398 17.1944ZM104.284 17.17C104.337 17.17 104.367 17.1779 104.38 17.1828C104.391 17.1869 104.395 17.1905 104.398 17.1944L105.123 16.5056C104.894 16.264 104.591 16.17 104.284 16.17V17.17ZM103.919 17.3172C104.042 17.2567 104.138 17.2169 104.208 17.1931C104.285 17.167 104.304 17.17 104.284 17.17V16.17C104.144 16.17 104.005 16.206 103.887 16.2459C103.763 16.2881 103.626 16.3473 103.479 16.4188L103.919 17.3172ZM103.079 17.6395C103.346 17.5692 103.627 17.4599 103.919 17.3172L103.479 16.4188C103.231 16.5401 103.014 16.6228 102.825 16.6725L103.079 17.6395ZM101.368 17.854C101.927 17.854 102.495 17.7825 103.071 17.6417L102.833 16.6703C102.329 16.7935 101.841 16.854 101.368 16.854V17.854ZM99.8901 17.4284C100.306 17.7244 100.811 17.854 101.368 17.854V16.854C100.965 16.854 100.678 16.7616 100.47 16.6136L99.8901 17.4284ZM99.0547 16.2611C99.2056 16.7437 99.4844 17.1397 99.8901 17.4284L100.47 16.6136C100.252 16.4583 100.098 16.2483 100.009 15.9629L99.0547 16.2611ZM102.066 15.594L99.5284 15.612L99.5355 16.612L102.074 16.594L102.066 15.594ZM102.816 15.5231C102.588 15.5697 102.34 15.594 102.07 15.594V16.594C102.4 16.594 102.716 16.5643 103.016 16.5029L102.816 15.5231ZM103.365 15.3374C103.224 15.4124 103.044 15.4765 102.816 15.5231L103.016 16.5029C103.316 16.4415 103.592 16.3496 103.835 16.2206L103.365 15.3374ZM103.791 15.0541C103.671 15.1553 103.53 15.2501 103.365 15.3374L103.835 16.2206C104.054 16.1039 104.255 15.9707 104.435 15.8199L103.791 15.0541ZM104.044 14.7658C103.986 14.8629 103.904 14.9596 103.791 15.0542L104.435 15.8199C104.622 15.6624 104.78 15.4831 104.902 15.2802L104.044 14.7658ZM104.188 14.434C104.159 14.5418 104.112 14.6522 104.044 14.7658L104.902 15.2803C105.014 15.0938 105.099 14.8982 105.154 14.694L104.188 14.434ZM104.234 14.078C104.234 14.2039 104.218 14.3221 104.188 14.434L105.154 14.694C105.208 14.4939 105.234 14.2881 105.234 14.078H104.234ZM103.45 12.4328C103.973 12.8307 104.234 13.3608 104.234 14.078H105.234C105.234 13.0672 104.841 12.2353 104.056 11.6372L103.45 12.4328ZM100.666 11.788C102.03 11.788 102.926 12.0337 103.45 12.4328L104.056 11.6372C103.272 11.0403 102.11 10.788 100.666 10.788V11.788ZM97.3497 12.8977C98.1839 12.1698 99.2747 11.788 100.666 11.788V10.788C99.0813 10.788 97.742 11.2282 96.6922 12.1443L97.3497 12.8977ZM96.108 15.878C96.108 14.5851 96.5317 13.6116 97.3497 12.8977L96.6922 12.1443C95.6263 13.0744 95.108 14.3389 95.108 15.878H96.108ZM97.3495 18.5821C96.5251 17.9288 96.108 17.0464 96.108 15.878H95.108C95.108 17.3256 95.6449 18.5072 96.7284 19.3659L97.3495 18.5821ZM100.666 19.608C99.2911 19.608 98.1983 19.2547 97.3495 18.5821L96.7284 19.3659C97.7877 20.2053 99.1129 20.608 100.666 20.608V19.608ZM99.9399 15.0053C99.9725 14.6466 100.042 14.3265 100.146 14.0419L99.2061 13.7001C99.0696 14.0755 98.9834 14.4814 98.944 14.9147L99.9399 15.0053ZM100.792 14.442C100.715 14.442 100.259 14.4481 99.4347 14.4601L99.4492 15.4599C100.281 15.4479 100.725 15.442 100.792 15.442V14.442ZM100.722 14.4368C100.7 14.4921 100.689 14.4907 100.709 14.474C100.72 14.465 100.736 14.4557 100.754 14.4493C100.773 14.443 100.786 14.442 100.792 14.442V15.442C100.991 15.442 101.182 15.3793 101.343 15.248C101.495 15.1233 101.591 14.9599 101.654 14.7992L100.722 14.4368ZM100.778 13.97C100.778 14.2193 100.75 14.3651 100.721 14.4385L101.655 14.7975C101.746 14.5589 101.778 14.2727 101.778 13.97H100.778ZM100.594 13.336C100.616 13.336 100.631 13.3383 100.639 13.3403C100.647 13.3421 100.65 13.3439 100.651 13.3445C100.652 13.345 100.654 13.3463 100.658 13.35C100.662 13.3539 100.669 13.3622 100.679 13.3777C100.723 13.4513 100.778 13.626 100.778 13.97H101.778C101.778 13.558 101.719 13.1657 101.535 12.8613C101.327 12.5163 100.99 12.336 100.594 12.336V13.336ZM100.471 13.4405C100.524 13.381 100.563 13.3538 100.584 13.3425C100.602 13.3327 100.603 13.336 100.594 13.336V12.336C100.231 12.336 99.9414 12.5336 99.7273 12.7715L100.471 13.4405ZM100.146 14.0419C100.253 13.7473 100.366 13.5564 100.471 13.4405L99.7273 12.7715C99.5077 13.0156 99.339 13.3347 99.2061 13.7001L100.146 14.0419ZM116.726 16.4C116.726 17.518 116.357 18.285 115.673 18.793C114.96 19.3217 113.831 19.626 112.204 19.626V20.626C113.925 20.626 115.307 20.3093 116.268 19.5961C117.258 18.862 117.726 17.766 117.726 16.4H116.726ZM116.273 15.0503C116.575 15.4401 116.726 15.8836 116.726 16.4H117.726C117.726 15.6684 117.505 15.0079 117.063 14.4377L116.273 15.0503ZM114.476 13.6661C115.379 14.1824 115.96 14.6473 116.273 15.0503L117.063 14.4377C116.632 13.8807 115.917 13.3376 114.972 12.7979L114.476 13.6661ZM113.428 13.089C113.845 13.309 114.192 13.5005 114.472 13.6639L114.976 12.8001C114.68 12.6275 114.319 12.429 113.896 12.205L113.428 13.089ZM112.431 12.5541C112.675 12.6881 113.007 12.8665 113.428 13.0891L113.896 12.205C113.477 11.9835 113.149 11.8079 112.913 11.6779L112.431 12.5541ZM111.65 12.0685C111.914 12.251 112.175 12.4131 112.431 12.5541L112.913 11.6779C112.689 11.5549 112.458 11.411 112.218 11.2456L111.65 12.0685ZM110.976 11.4407C111.137 11.6699 111.373 11.8772 111.65 12.0685L112.218 11.2456C111.991 11.0888 111.861 10.9601 111.794 10.8653L110.976 11.4407ZM110.714 10.64C110.714 10.9333 110.809 11.2034 110.976 11.4408L111.794 10.8653C111.733 10.7786 111.714 10.7067 111.714 10.64H110.714ZM112.276 9.276C111.867 9.276 111.468 9.3571 111.164 9.60415C110.841 9.86725 110.714 10.2445 110.714 10.64H111.714C111.714 10.4595 111.764 10.4048 111.795 10.3799C111.845 10.3389 111.977 10.276 112.276 10.276V9.276ZM113.928 9.64809C113.355 9.40745 112.803 9.276 112.276 9.276V10.276C112.637 10.276 113.057 10.3666 113.54 10.5699L113.928 9.64809ZM115.403 10.3303C114.957 10.1015 114.466 9.87419 113.928 9.64809L113.54 10.5699C114.058 10.7878 114.527 11.0045 114.945 11.2197L115.403 10.3303ZM116.146 10.608C116.061 10.608 115.831 10.5505 115.403 10.3303L114.945 11.2197C115.381 11.4435 115.799 11.608 116.146 11.608V10.608ZM116.301 10.5751C116.257 10.596 116.207 10.608 116.146 10.608V11.608C116.348 11.608 116.545 11.566 116.729 11.4789L116.301 10.5751ZM116.378 10.4938C116.342 10.5525 116.314 10.5692 116.301 10.5751L116.729 11.4789C116.944 11.3769 117.108 11.2135 117.228 11.0202L116.378 10.4938ZM116.42 10.298C116.42 10.405 116.397 10.4623 116.378 10.4938L117.228 11.0202C117.365 10.7997 117.42 10.551 117.42 10.298H116.42ZM115.156 8.85789C116.129 9.42567 116.42 9.92016 116.42 10.298H117.42C117.42 9.35585 116.703 8.60234 115.66 7.99411L115.156 8.85789ZM111.754 8.044C113.113 8.044 114.24 8.32348 115.156 8.85789L115.66 7.99411C114.56 7.35252 113.251 7.044 111.754 7.044V8.044ZM108.209 8.90634C108.991 8.3531 110.152 8.044 111.754 8.044V7.044C110.044 7.044 108.649 7.3709 107.631 8.08967L108.209 8.90634ZM107.07 10.964C107.07 10.1353 107.427 9.45885 108.209 8.90634L107.631 8.08967C106.613 8.80916 106.07 9.7767 106.07 10.964H107.07ZM107.251 11.7979C107.124 11.4757 107.07 11.1994 107.07 10.964H106.07C106.07 11.3526 106.16 11.7544 106.321 12.1641L107.251 11.7979ZM107.859 12.7631C107.569 12.4234 107.371 12.1014 107.251 11.7979L106.321 12.1641C106.489 12.5926 106.753 13.0086 107.099 13.4129L107.859 12.7631ZM108.869 13.5892C108.473 13.3645 108.138 13.0891 107.859 12.7631L107.099 13.4129C107.456 13.8309 107.883 14.1795 108.375 14.4588L108.869 13.5892ZM109.901 14.1588C109.545 13.969 109.202 13.7793 108.87 13.5899L108.374 14.4581C108.714 14.6527 109.067 14.847 109.431 15.0412L109.901 14.1588ZM110.777 14.6281C110.554 14.5075 110.262 14.351 109.901 14.1588L109.431 15.0412C109.79 15.233 110.08 15.3885 110.301 15.5079L110.777 14.6281ZM111.443 14.9881L110.777 14.6281L110.301 15.5079L110.967 15.8679L111.443 14.9881ZM111.99 15.2999C111.852 15.2144 111.668 15.1101 111.443 14.9881L110.967 15.8679C111.186 15.9859 111.35 16.0796 111.464 16.1501L111.99 15.2999ZM112.4 15.6021C112.275 15.4919 112.138 15.3914 111.99 15.2999L111.464 16.1501C111.568 16.2146 111.659 16.2821 111.738 16.3519L112.4 15.6021ZM112.738 16.0355C112.658 15.8647 112.535 15.7218 112.4 15.6021L111.738 16.3519C111.806 16.4122 111.828 16.4493 111.832 16.4585L112.738 16.0355ZM112.848 16.544C112.848 16.3694 112.814 16.1974 112.738 16.0356L111.832 16.4584C111.84 16.4766 111.848 16.5026 111.848 16.544H112.848ZM111.538 17.602C111.85 17.602 112.172 17.5511 112.429 17.3743C112.719 17.1742 112.848 16.8688 112.848 16.544H111.848C111.848 16.5765 111.842 16.5808 111.847 16.5703C111.853 16.5576 111.862 16.5505 111.862 16.5507C111.858 16.5533 111.836 16.5671 111.78 16.5798C111.725 16.5926 111.646 16.602 111.538 16.602V17.602ZM109.059 17.0996C110.039 17.4242 110.872 17.602 111.538 17.602V16.602C111.028 16.602 110.313 16.4618 109.373 16.1504L109.059 17.0996ZM107.398 16.648C107.452 16.648 107.61 16.6709 107.915 16.7509C108.203 16.8266 108.584 16.9422 109.059 17.0996L109.373 16.1504C108.888 15.9898 108.486 15.8669 108.168 15.7836C107.867 15.7046 107.596 15.648 107.398 15.648V16.648ZM106.998 16.7686C107.05 16.7131 107.154 16.648 107.398 16.648V15.648C106.97 15.648 106.564 15.7689 106.268 16.0854L106.998 16.7686ZM106.872 17.102C106.872 16.9597 106.914 16.8583 106.998 16.7686L106.268 16.0854C106.004 16.3677 105.872 16.7163 105.872 17.102H106.872ZM107.061 17.6029C106.915 17.3788 106.872 17.2151 106.872 17.102H105.872C105.872 17.4689 106.009 17.8212 106.223 18.1491L107.061 17.6029ZM107.742 18.2852C107.42 18.0451 107.2 17.816 107.061 17.6029L106.223 18.1491C106.444 18.488 106.758 18.7989 107.144 19.0868L107.742 18.2852ZM108.879 18.9531C108.443 18.7493 108.065 18.5261 107.742 18.2852L107.144 19.0868C107.529 19.3739 107.967 19.6307 108.455 19.8589L108.879 18.9531ZM110.391 19.439C109.802 19.3131 109.299 19.1498 108.879 18.9531L108.455 19.8589C108.959 20.0943 109.536 20.2789 110.183 20.417L110.391 19.439ZM112.204 19.626C111.578 19.626 110.974 19.5634 110.391 19.439L110.183 20.417C110.836 20.5566 111.51 20.626 112.204 20.626V19.626ZM123.94 20.626C124.503 20.626 125.045 20.5473 125.563 20.3879L125.269 19.4321C124.851 19.5607 124.409 19.626 123.94 19.626V20.626ZM119.948 19.3135C121.015 20.1998 122.359 20.626 123.94 20.626V19.626C122.545 19.626 121.441 19.2542 120.588 18.5445L119.948 19.3135ZM118.328 15.644C118.328 17.1653 118.86 18.4088 119.948 19.3135L120.588 18.5445C119.756 17.8532 119.328 16.9067 119.328 15.644H118.328ZM119.067 13.0383C118.57 13.795 118.328 14.6699 118.328 15.644H119.328C119.328 14.8421 119.524 14.163 119.903 13.5877L119.067 13.0383ZM121.091 11.3442C120.24 11.7229 119.561 12.2879 119.067 13.0383L119.903 13.5877C120.285 13.0061 120.812 12.5631 121.497 12.2578L121.091 11.3442ZM123.94 10.788C122.887 10.788 121.933 10.969 121.091 11.3442L121.497 12.2578C122.191 11.949 123.001 11.788 123.94 11.788V10.788ZM126.458 11.1504C125.767 10.9024 124.922 10.788 123.94 10.788V11.788C124.854 11.788 125.574 11.8956 126.12 12.0916L126.458 11.1504ZM128.02 12.2226C127.676 11.7379 127.132 11.3925 126.458 11.1504L126.12 12.0916C126.682 12.2935 127.02 12.5421 127.204 12.8014L128.02 12.2226ZM128.508 13.844C128.508 13.2385 128.351 12.69 128.02 12.2226L127.204 12.8014C127.401 13.078 127.508 13.4175 127.508 13.844H128.508ZM128.341 14.7216C128.45 14.4323 128.508 14.1389 128.508 13.844H127.508C127.508 14.0051 127.476 14.1797 127.405 14.3704L128.341 14.7216ZM127.854 15.5723C128.065 15.2997 128.231 15.0163 128.341 14.7216L127.405 14.3704C127.335 14.5557 127.225 14.7523 127.064 14.9597L127.854 15.5723ZM126.832 16.3125C127.25 16.1385 127.602 15.8975 127.854 15.5723L127.064 14.9597C126.944 15.1145 126.75 15.2635 126.448 15.3895L126.832 16.3125ZM125.38 16.576C125.911 16.576 126.399 16.4931 126.832 16.3125L126.448 15.3895C126.161 15.5089 125.809 15.576 125.38 15.576V16.576ZM124.763 16.5326C124.94 16.5634 125.149 16.576 125.38 16.576V15.576C125.179 15.576 125.034 15.5646 124.935 15.5474L124.763 16.5326ZM124.186 16.3306C124.373 16.4276 124.566 16.4982 124.763 16.5326L124.935 15.5474C124.856 15.5338 124.761 15.5024 124.648 15.4434L124.186 16.3306ZM123.62 15.6857C123.729 15.9595 123.915 16.1893 124.186 16.3306L124.648 15.4434C124.619 15.4287 124.583 15.4005 124.548 15.3143L123.62 15.6857ZM123.476 14.816C123.476 15.1308 123.516 15.4273 123.62 15.6857L124.548 15.3143C124.508 15.2127 124.476 15.0532 124.476 14.816H123.476ZM123.627 13.8158C123.531 14.1817 123.476 14.518 123.476 14.816H124.476C124.476 14.634 124.511 14.3883 124.595 14.0702L123.627 13.8158ZM123.746 13.268C123.746 13.2639 123.746 13.2738 123.742 13.304C123.738 13.3322 123.732 13.3703 123.722 13.4197C123.702 13.5187 123.671 13.6499 123.627 13.8158L124.595 14.0703C124.681 13.7432 124.746 13.4528 124.746 13.268H123.746ZM123.778 13.354C123.821 13.354 123.839 13.3589 123.841 13.3595C123.842 13.3595 123.822 13.3536 123.798 13.332C123.772 13.3092 123.756 13.2828 123.749 13.2632C123.743 13.2466 123.746 13.2449 123.746 13.268H124.746C124.746 13.036 124.678 12.7752 124.46 12.583C124.255 12.4011 123.997 12.354 123.778 12.354V13.354ZM123.573 13.5226C123.696 13.3509 123.765 13.354 123.778 13.354V12.354C123.335 12.354 122.996 12.6091 122.759 12.9414L123.573 13.5226ZM123.237 14.3001C123.321 13.9673 123.437 13.7129 123.573 13.5226L122.759 12.9414C122.535 13.2551 122.375 13.6307 122.267 14.0539L123.237 14.3001ZM123.108 15.356C123.108 14.9876 123.151 14.636 123.237 14.3001L122.267 14.0539C122.161 14.474 122.108 14.9084 122.108 15.356H123.108ZM123.513 16.4633C123.253 16.199 123.108 15.8461 123.108 15.356H122.108C122.108 16.066 122.329 16.685 122.801 17.1647L123.513 16.4633ZM124.642 16.872C124.124 16.872 123.767 16.7214 123.513 16.4633L122.801 17.1647C123.279 17.6506 123.912 17.872 124.642 17.872V16.872ZM126.072 16.6804C125.69 16.8041 125.217 16.872 124.642 16.872V17.872C125.291 17.872 125.874 17.7959 126.38 17.6316L126.072 16.6804ZM126.655 16.4409C126.413 16.5646 126.23 16.6376 126.097 16.6729L126.355 17.6391C126.582 17.5784 126.837 17.4714 127.111 17.3311L126.655 16.4409ZM127.432 16.188C127.291 16.188 127.154 16.2276 127.044 16.2672C126.926 16.3099 126.795 16.3694 126.655 16.4409L127.111 17.3311C127.229 17.2706 127.319 17.2311 127.383 17.2078C127.457 17.1814 127.465 17.188 127.432 17.188V16.188ZM128.089 16.3409C127.885 16.2275 127.656 16.188 127.432 16.188V17.188C127.544 17.188 127.591 17.2085 127.603 17.2151L128.089 16.3409ZM128.518 16.7704C128.419 16.5718 128.257 16.4346 128.089 16.3409L127.603 17.2151C127.626 17.228 127.636 17.2365 127.637 17.2377C127.638 17.2383 127.631 17.2319 127.624 17.2176L128.518 16.7704ZM128.634 17.264C128.634 17.0922 128.596 16.9254 128.518 16.7704L127.624 17.2176C127.63 17.2306 127.634 17.2438 127.634 17.264H128.634ZM128.415 18.0905C128.544 17.8183 128.634 17.537 128.634 17.264H127.634C127.634 17.327 127.61 17.4537 127.511 17.6615L128.415 18.0905ZM127.802 18.9683C128.064 18.6796 128.274 18.3872 128.415 18.0905L127.511 17.6615C127.424 17.8448 127.28 18.0564 127.062 18.2957L127.802 18.9683ZM126.881 19.771C127.227 19.5295 127.535 19.2622 127.802 18.9683L127.062 18.2957C126.849 18.5298 126.599 18.7485 126.309 18.951L126.881 19.771ZM125.563 20.3879C126.068 20.2324 126.511 20.0293 126.881 19.771L126.309 18.951C126.043 19.1367 125.7 19.2996 125.269 19.4321L125.563 20.3879ZM137.792 19.4557C137.654 19.4834 137.472 19.5 137.242 19.5V20.5C137.516 20.5 137.766 20.4806 137.988 20.4363L137.792 19.4557ZM138.154 19.3314C138.05 19.3859 137.93 19.4282 137.792 19.4557L137.988 20.4363C138.21 20.3918 138.42 20.3201 138.616 20.2186L138.154 19.3314ZM138.338 19.1647C138.288 19.2402 138.228 19.2932 138.154 19.3314L138.616 20.2186C138.842 20.1008 139.028 19.9318 139.17 19.7194L138.338 19.1647ZM138.534 18.7536C138.473 18.9277 138.406 19.0625 138.338 19.1647L139.17 19.7194C139.294 19.5335 139.395 19.3203 139.477 19.0864L138.534 18.7536ZM138.671 18.0808C138.638 18.3773 138.589 18.5978 138.534 18.7536L139.477 19.0864C139.566 18.8342 139.626 18.5327 139.665 18.1932L138.671 18.0808ZM138.75 17.0606C138.732 17.4357 138.706 17.7756 138.671 18.0808L139.665 18.1933C139.702 17.8624 139.73 17.5003 139.748 17.1074L138.75 17.0606ZM138.776 15.716C138.776 16.2389 138.767 16.6867 138.75 17.0606L139.748 17.1074C139.767 16.7134 139.776 16.2492 139.776 15.716H138.776ZM138.541 13.3417C138.693 13.9194 138.776 14.7056 138.776 15.716H139.776C139.776 14.6624 139.691 13.7806 139.507 13.0863L138.541 13.3417ZM137.927 12.2009C138.169 12.4052 138.388 12.7628 138.541 13.3417L139.507 13.0863C139.324 12.3932 139.027 11.8208 138.573 11.4371L137.927 12.2009ZM136.864 11.878C137.354 11.878 137.691 12.0016 137.927 12.2009L138.573 11.4371C138.113 11.0484 137.526 10.878 136.864 10.878V11.878ZM133.884 12.6152C134.678 12.1325 135.663 11.878 136.864 11.878V10.878C135.521 10.878 134.346 11.1635 133.364 11.7608L133.884 12.6152ZM133.124 9.578V12.188H134.124V9.578H133.124ZM132.822 8.36362C132.958 8.47433 133.124 8.79754 133.124 9.578H134.124C134.124 8.75046 133.966 8.00568 133.454 7.58838L132.822 8.36362ZM131.698 8.08C132.276 8.08 132.623 8.20174 132.822 8.36362L133.454 7.58839C133.005 7.22227 132.392 7.08 131.698 7.08V8.08ZM130.605 8.4615C130.854 8.22102 131.2 8.08 131.698 8.08V7.08C130.996 7.08 130.382 7.28699 129.91 7.74251L130.605 8.4615ZM130.218 9.74C130.218 9.06588 130.382 8.67776 130.605 8.4615L129.91 7.74251C129.414 8.22225 129.218 8.92613 129.218 9.74H130.218ZM130.254 17.4057L130.218 9.73765L129.218 9.74235L129.254 17.4104L130.254 17.4057ZM130.608 19.0967C130.413 18.8613 130.254 18.347 130.254 17.408H129.254C129.254 18.389 129.407 19.2127 129.836 19.7333L130.608 19.0967ZM131.698 19.482C131.117 19.482 130.793 19.3211 130.608 19.0967L129.836 19.7333C130.275 20.2649 130.935 20.482 131.698 20.482V19.482ZM132.75 19.0564C132.55 19.3177 132.232 19.482 131.698 19.482V20.482C132.46 20.482 133.108 20.2323 133.544 19.6656L132.75 19.0564ZM133.124 17.264C133.124 18.222 132.964 18.7788 132.75 19.0564L133.544 19.6656C133.966 19.1152 134.124 18.274 134.124 17.264H133.124ZM133.124 15.284V17.264H134.124V15.284H133.124ZM133.158 14.8418C133.134 14.9818 133.124 15.1299 133.124 15.284H134.124C134.124 15.1742 134.132 15.0822 134.144 15.0062L133.158 14.8418ZM133.301 14.408C133.227 14.5442 133.183 14.6919 133.158 14.8418L134.144 15.0062C134.155 14.9401 134.171 14.9018 134.181 14.8821L133.301 14.408ZM133.498 14.1124C133.423 14.2041 133.357 14.3029 133.301 14.408L134.181 14.8821C134.209 14.8311 134.239 14.7859 134.272 14.7456L133.498 14.1124ZM133.826 13.8371C133.696 13.9078 133.587 14.0031 133.498 14.1124L134.272 14.7456C134.291 14.7229 134.302 14.7162 134.304 14.715L133.826 13.8371ZM134.134 13.7081C134.027 13.7411 133.923 13.7837 133.826 13.8371L134.304 14.715C134.339 14.6963 134.379 14.6789 134.428 14.6639L134.134 13.7081ZM134.542 13.65C134.405 13.65 134.267 13.6671 134.134 13.7081L134.428 14.6639C134.451 14.6569 134.487 14.65 134.542 14.65V13.65ZM135.834 15.176C135.834 14.7836 135.761 14.3975 135.532 14.101C135.284 13.7799 134.923 13.65 134.542 13.65V14.65C134.689 14.65 134.724 14.6911 134.74 14.712C134.775 14.7575 134.834 14.8844 134.834 15.176H135.834ZM135.852 18.5033L135.834 15.1733L134.834 15.1787L134.852 18.5087L135.852 18.5033ZM136.114 19.2475C135.967 19.1244 135.852 18.9118 135.852 18.506H134.852C134.852 19.1082 135.031 19.6456 135.472 20.0145L136.114 19.2475ZM137.242 19.5C136.608 19.5 136.271 19.3794 136.114 19.2475L135.472 20.0145C135.903 20.3746 136.532 20.5 137.242 20.5V19.5ZM145.81 20.626C147.334 20.626 148.638 20.2075 149.684 19.3411L149.046 18.5709C148.208 19.2645 147.142 19.626 145.81 19.626V20.626ZM143.077 20.0783C143.899 20.4469 144.813 20.626 145.81 20.626V19.626C144.935 19.626 144.163 19.4691 143.485 19.1657L143.077 20.0783ZM141.066 18.3882C141.569 19.1395 142.242 19.7046 143.077 20.0783L143.485 19.1657C142.82 18.8674 142.293 18.4245 141.896 17.8318L141.066 18.3882ZM140.306 15.752C140.306 16.7395 140.554 17.6248 141.066 18.3882L141.896 17.8318C141.508 17.2513 141.306 16.5645 141.306 15.752H140.306ZM141.884 12.1147C140.825 13.0247 140.306 14.256 140.306 15.752H141.306C141.306 14.512 141.723 13.5713 142.536 12.8733L141.884 12.1147ZM145.81 10.788C144.25 10.788 142.927 11.2188 141.884 12.1147L142.536 12.8733C143.365 12.1612 144.442 11.788 145.81 11.788V10.788ZM149.72 12.1168C148.688 11.2188 147.37 10.788 145.81 10.788V11.788C147.178 11.788 148.248 12.1612 149.064 12.8712L149.72 12.1168ZM151.278 15.752C151.278 14.2583 150.767 13.0275 149.72 12.1168L149.064 12.8712C149.865 13.5685 150.278 14.5097 150.278 15.752H151.278ZM149.684 19.3411C150.754 18.455 151.278 17.2386 151.278 15.752H150.278C150.278 16.9774 149.86 17.897 149.046 18.5709L149.684 19.3411ZM144.62 17.5159C144.812 18.044 145.176 18.538 145.81 18.538V17.538C145.793 17.538 145.777 17.537 145.743 17.5045C145.698 17.461 145.629 17.3648 145.56 17.1741L144.62 17.5159ZM144.338 15.734C144.338 16.3906 144.428 16.9875 144.62 17.5159L145.56 17.1741C145.416 16.7785 145.338 16.3014 145.338 15.734H144.338ZM144.456 14.5167C144.377 14.9016 144.338 15.3078 144.338 15.734H145.338C145.338 15.3682 145.371 15.0304 145.436 14.7193L144.456 14.5167ZM144.869 13.4635C144.672 13.7666 144.538 14.122 144.456 14.5167L145.436 14.7193C145.498 14.418 145.592 14.1854 145.707 14.0085L144.869 13.4635ZM145.828 12.876C145.392 12.876 145.076 13.1441 144.869 13.4635L145.707 14.0085C145.76 13.928 145.799 13.8943 145.817 13.882C145.826 13.8764 145.829 13.8755 145.829 13.8757C145.828 13.876 145.827 13.876 145.828 13.876V12.876ZM146.987 13.9307C146.815 13.4074 146.472 12.876 145.828 12.876V13.876C145.828 13.876 145.834 13.8694 145.864 13.9004C145.906 13.9442 145.971 14.044 146.037 14.2433L146.987 13.9307ZM147.246 15.734C147.246 15.0696 147.163 14.4659 146.987 13.9307L146.037 14.2433C146.173 14.6561 146.246 15.1504 146.246 15.734H147.246ZM146.985 17.5158C147.163 16.995 147.246 16.3977 147.246 15.734H146.246C146.246 16.3183 146.173 16.801 146.039 17.1922L146.985 17.5158ZM145.81 18.538C146.447 18.538 146.804 18.0444 146.985 17.5159L146.039 17.1922C145.975 17.3784 145.911 17.4695 145.871 17.5089C145.842 17.5367 145.829 17.538 145.81 17.538V18.538ZM157.168 20.626C158.692 20.626 159.996 20.2075 161.042 19.3411L160.404 18.5709C159.566 19.2645 158.5 19.626 157.168 19.626V20.626ZM154.435 20.0783C155.257 20.4469 156.171 20.626 157.168 20.626V19.626C156.293 19.626 155.521 19.4691 154.843 19.1657L154.435 20.0783ZM152.424 18.3882C152.927 19.1395 153.6 19.7046 154.435 20.0783L154.843 19.1657C154.178 18.8674 153.651 18.4245 153.254 17.8318L152.424 18.3882ZM151.664 15.752C151.664 16.7395 151.912 17.6248 152.424 18.3882L153.254 17.8318C152.866 17.2513 152.664 16.5645 152.664 15.752H151.664ZM153.242 12.1147C152.183 13.0247 151.664 14.256 151.664 15.752H152.664C152.664 14.512 153.081 13.5713 153.894 12.8733L153.242 12.1147ZM157.168 10.788C155.608 10.788 154.285 11.2188 153.242 12.1147L153.894 12.8733C154.723 12.1612 155.8 11.788 157.168 11.788V10.788ZM161.078 12.1168C160.046 11.2188 158.728 10.788 157.168 10.788V11.788C158.536 11.788 159.606 12.1612 160.422 12.8712L161.078 12.1168ZM162.636 15.752C162.636 14.2583 162.125 13.0275 161.078 12.1168L160.422 12.8712C161.223 13.5685 161.636 14.5097 161.636 15.752H162.636ZM161.042 19.3411C162.112 18.455 162.636 17.2386 162.636 15.752H161.636C161.636 16.9774 161.218 17.897 160.404 18.5709L161.042 19.3411ZM155.978 17.5159C156.17 18.044 156.534 18.538 157.168 18.538V17.538C157.151 17.538 157.134 17.537 157.101 17.5045C157.056 17.461 156.987 17.3648 156.918 17.1741L155.978 17.5159ZM155.696 15.734C155.696 16.3906 155.786 16.9875 155.978 17.5159L156.918 17.1741C156.774 16.7785 156.696 16.3014 156.696 15.734H155.696ZM155.814 14.5167C155.735 14.9016 155.696 15.3078 155.696 15.734H156.696C156.696 15.3682 156.729 15.0304 156.794 14.7193L155.814 14.5167ZM156.227 13.4635C156.03 13.7666 155.896 14.122 155.814 14.5167L156.794 14.7193C156.856 14.418 156.95 14.1854 157.065 14.0085L156.227 13.4635ZM157.186 12.876C156.75 12.876 156.434 13.1441 156.227 13.4635L157.065 14.0085C157.118 13.928 157.157 13.8943 157.175 13.882C157.184 13.8764 157.187 13.8755 157.187 13.8757C157.186 13.876 157.185 13.876 157.186 13.876V12.876ZM158.345 13.9307C158.173 13.4074 157.83 12.876 157.186 12.876V13.876C157.186 13.876 157.192 13.8694 157.222 13.9004C157.264 13.9442 157.329 14.044 157.395 14.2433L158.345 13.9307ZM158.604 15.734C158.604 15.0696 158.521 14.4659 158.345 13.9307L157.395 14.2433C157.531 14.6561 157.604 15.1504 157.604 15.734H158.604ZM158.343 17.5158C158.521 16.995 158.604 16.3977 158.604 15.734H157.604C157.604 16.3183 157.531 16.801 157.397 17.1922L158.343 17.5158ZM157.168 18.538C157.804 18.538 158.162 18.0444 158.343 17.5159L157.397 17.1922C157.333 17.3784 157.269 17.4695 157.229 17.5089C157.2 17.5367 157.187 17.538 157.168 17.538V18.538ZM165.628 20.5C166.41 20.5 167.075 20.2501 167.518 19.6754L166.726 19.0646C166.521 19.3299 166.19 19.5 165.628 19.5V20.5ZM163.766 19.7513C164.205 20.2829 164.865 20.5 165.628 20.5V19.5C165.047 19.5 164.723 19.3391 164.538 19.1147L163.766 19.7513ZM163.184 17.426C163.184 18.407 163.337 19.2307 163.766 19.7513L164.538 19.1147C164.343 18.8793 164.184 18.365 164.184 17.426H163.184ZM163.148 9.83237L163.184 17.4284L164.184 17.4236L164.148 9.82763L163.148 9.83237ZM163.265 8.86942C163.184 9.16191 163.148 9.484 163.148 9.83H164.148C164.148 9.55201 164.178 9.32209 164.229 9.13458L163.265 8.86942ZM163.603 8.10924C163.452 8.33148 163.342 8.58812 163.265 8.86942L164.229 9.13458C164.284 8.93588 164.354 8.78453 164.431 8.67076L163.603 8.10924ZM164.17 7.55541C163.944 7.7005 163.754 7.8864 163.603 8.10925L164.431 8.67075C164.508 8.55761 164.6 8.46751 164.71 8.39659L164.17 7.55541ZM164.871 7.25608C164.62 7.31693 164.385 7.41668 164.17 7.55541L164.71 8.39659C164.831 8.31933 164.962 8.26307 165.107 8.22793L164.871 7.25608ZM165.628 7.17C165.365 7.17 165.112 7.1977 164.871 7.25608L165.107 8.22793C165.262 8.19031 165.435 8.17 165.628 8.17V7.17ZM167.425 7.67557C166.969 7.3105 166.341 7.17 165.628 7.17V8.17C166.235 8.17 166.597 8.29351 166.801 8.45643L167.425 7.67557ZM168.108 9.668C168.108 8.83834 167.946 8.09219 167.425 7.67557L166.801 8.45644C166.94 8.56782 167.108 8.88967 167.108 9.668H168.108ZM168.108 17.282V9.668H167.108V17.282H168.108ZM167.518 19.6754C167.946 19.1205 168.108 18.284 168.108 17.282H167.108C167.108 18.224 166.946 18.7795 166.726 19.0646L167.518 19.6754Z" fill="black"/>
<path d="M8.928 12.8712C11.0968 12.8712 12.8608 10.2136 12.8608 6.9468C12.8608 3.6808 11.0968 1.0232 8.928 1.0232C6.7592 1.0232 4.9948 3.6808 4.9948 6.9468C4.9948 10.2136 6.7596 12.8712 8.928 12.8712Z" fill="white" stroke="black"/>
<path d="M27.6424 12.8712C29.8112 12.8712 31.5756 10.2136 31.5756 6.9468C31.5756 3.6808 29.8112 1.0232 27.6424 1.0232C25.474 1.0232 23.71 3.6808 23.71 6.9468C23.71 10.2136 25.4744 12.8712 27.6424 12.8712Z" fill="white" stroke="black"/>
<path d="M35.7178 17.612C35.4686 17.3988 35.1252 17.3744 34.8617 17.5559C30.6311 20.4466 24.8916 22.4571 18.6998 23.2173C12.5094 23.9774 6.4537 23.4152 1.6491 21.6343C1.34929 21.5232 1.02107 21.6288 0.832339 21.8958C0.642562 22.1633 0.633221 22.5352 0.808865 22.8215C3.41478 27.0761 11.0299 29.3353 19.3263 28.3166C27.6259 27.2975 34.4685 23.262 35.9656 18.504C36.0661 18.1842 35.9662 17.8253 35.7178 17.612Z" fill="white" stroke="black"/>
</svg>
